<?xml version="1.0" encoding="utf-8"?>
<!-- Generator: Adobe Illustrator 17.0.0, SVG Export Plug-In . SVG Version: 6.00 Build 0)  -->
<!DOCTYPE svg PUBLIC "-//W3C//DTD SVG 1.1//EN" "http://www.w3.org/Graphics/SVG/1.1/DTD/svg11.dtd">
<svg version="1.1" id="Capa_1" xmlns="http://www.w3.org/2000/svg" xmlns:xlink="http://www.w3.org/1999/xlink" x="0px" y="0px"
	 width="64px" height="64px" viewBox="0 0 64 64" enable-background="new 0 0 64 64" xml:space="preserve">
<g>
	<path fill="#22B14C" d="M0,0v64h64V0H0z M31.941,6.483c7.103,0,12.862,6.302,12.862,14.804c0,8.503-5.759,15.401-12.862,15.401
		c-7.102,0-12.856-6.898-12.856-15.401C19.085,12.785,24.839,6.483,31.941,6.483z M56.008,56.103
		c-1.126,1.62-3.654,1.405-3.654,1.405H11.943c0,0-2.727,0.18-3.928-1.475c-0.649-0.894-0.197-2.706,0.247-3.717l1.087-2.477
		c0,0,3.006-6.723,6.428-10.619c2.102-2.389,4.602-1.845,6.219-1.068c0.996,0.478,2.122,1.871,2.945,2.609
		c1.134,1.017,3.136,2.173,6.409,2.238h2.008c3.271-0.065,5.273-1.221,6.406-2.238c0.822-0.738,1.917-2.174,2.904-2.668
		c1.484-0.743,3.743-1.2,5.79,1.127c3.423,3.896,6.134,10.741,6.134,10.741l1.114,2.429C56.167,53.394,56.639,55.197,56.008,56.103z
		"/>
	<path fill="#FFFFFF" d="M31.941,36.688c7.103,0,12.862-6.898,12.862-15.401c0-8.502-5.759-14.804-12.862-14.804
		c-7.102,0-12.856,6.302-12.856,14.804C19.085,29.79,24.839,36.688,31.941,36.688z"/>
	<path fill="#FFFFFF" d="M54.592,49.961c0,0-2.711-6.845-6.134-10.741c-2.047-2.327-4.306-1.87-5.79-1.127
		c-0.987,0.494-2.082,1.93-2.904,2.668c-1.133,1.017-3.135,2.173-6.406,2.238H31.35c-3.273-0.065-5.275-1.221-6.409-2.238
		c-0.823-0.738-1.949-2.131-2.945-2.609c-1.617-0.777-4.117-1.321-6.219,1.068c-3.422,3.896-6.428,10.619-6.428,10.619l-1.087,2.477
		c-0.444,1.011-0.896,2.823-0.247,3.717c1.201,1.655,3.928,1.475,3.928,1.475h40.411c0,0,2.528,0.215,3.654-1.405
		c0.631-0.906,0.159-2.709-0.302-3.713L54.592,49.961z"/>
</g>
</svg>
