<?xml version="1.0" encoding="utf-8"?>
<!-- Generator: Adobe Illustrator 17.0.0, SVG Export Plug-In . SVG Version: 6.00 Build 0)  -->
<!DOCTYPE svg PUBLIC "-//W3C//DTD SVG 1.1//EN" "http://www.w3.org/Graphics/SVG/1.1/DTD/svg11.dtd">
<svg version="1.1" id="Capa_1" xmlns="http://www.w3.org/2000/svg" xmlns:xlink="http://www.w3.org/1999/xlink" x="0px" y="0px"
	 width="64px" height="64px" viewBox="292.837 21.585 64 64" enable-background="new 292.837 21.585 64 64" xml:space="preserve">
<g>
	<path fill="#C3C3C3" d="M292.837,21.585v64h64v-64H292.837z M324.778,28.068c7.103,0,12.862,6.302,12.862,14.804
		c0,8.503-5.759,15.401-12.862,15.401c-7.102,0-12.856-6.898-12.856-15.401C311.922,34.37,317.676,28.068,324.778,28.068z
		 M348.845,77.689c-1.126,1.62-3.654,1.405-3.654,1.405H304.78c0,0-2.727,0.18-3.928-1.475c-0.649-0.894-0.197-2.706,0.247-3.717
		l1.087-2.477c0,0,3.006-6.723,6.428-10.619c2.102-2.389,4.602-1.845,6.219-1.068c0.996,0.478,2.122,1.871,2.945,2.609
		c1.134,1.017,3.136,2.173,6.409,2.238h2.008c3.271-0.065,5.273-1.221,6.406-2.238c0.822-0.738,1.917-2.174,2.904-2.668
		c1.484-0.743,3.743-1.2,5.79,1.127c3.423,3.896,6.134,10.741,6.134,10.741l1.114,2.429
		C349.004,74.979,349.476,76.783,348.845,77.689z"/>
	<path fill="#FFFFFF" d="M324.778,58.273c7.103,0,12.862-6.898,12.862-15.401c0-8.502-5.759-14.804-12.862-14.804
		c-7.102,0-12.856,6.302-12.856,14.804C311.922,51.375,317.676,58.273,324.778,58.273z"/>
	<path fill="#FFFFFF" d="M347.429,71.546c0,0-2.711-6.845-6.134-10.741c-2.047-2.327-4.306-1.87-5.79-1.127
		c-0.987,0.494-2.082,1.93-2.904,2.668c-1.133,1.017-3.135,2.173-6.406,2.238h-2.008c-3.273-0.065-5.275-1.221-6.409-2.238
		c-0.823-0.738-1.949-2.131-2.945-2.609c-1.617-0.777-4.117-1.321-6.219,1.068c-3.422,3.896-6.428,10.619-6.428,10.619l-1.087,2.477
		c-0.444,1.011-0.896,2.823-0.247,3.717c1.201,1.655,3.928,1.475,3.928,1.475h40.411c0,0,2.528,0.215,3.654-1.405
		c0.631-0.906,0.159-2.709-0.302-3.713L347.429,71.546z"/>
</g>
</svg>
