<?xml version="1.0" encoding="utf-8"?>
<!-- Generator: Adobe Illustrator 16.0.0, SVG Export Plug-In . SVG Version: 6.00 Build 0)  -->
<!DOCTYPE svg PUBLIC "-//W3C//DTD SVG 1.1//EN" "http://www.w3.org/Graphics/SVG/1.1/DTD/svg11.dtd">
<svg version="1.1" id="Layer_1" xmlns="http://www.w3.org/2000/svg" xmlns:xlink="http://www.w3.org/1999/xlink" x="0px" y="0px"
	 width="32px" height="32px" viewBox="0 0 32 32" enable-background="new 0 0 32 32" xml:space="preserve">
<g>
	<path fill="#161616" d="M8.335,6.904h14.686v1.753h1.973V6.346c0-0.781-0.633-1.415-1.415-1.415H7.777
		c-0.781,0-1.415,0.633-1.415,1.415V27.15c0,0.681,0.552,1.232,1.232,1.232h3.7V26.41H8.335V6.904z"/>
	<path fill="#161616" d="M10.013,10.412c0,0.539,0.438,0.984,0.979,0.984h0.303V9.426h-0.303
		C10.45,9.426,10.013,9.871,10.013,10.412z"/>
	<path fill="#161616" d="M10.013,14.521c0,0.539,0.438,0.93,0.979,0.93h0.303V13.59h-0.303C10.45,13.59,10.013,13.98,10.013,14.521z
		"/>
	<path fill="#161616" d="M10.013,18.631c0,0.539,0.438,0.986,0.979,0.986h0.303v-1.973h-0.303
		C10.45,17.645,10.013,18.09,10.013,18.631z"/>
	<path fill="#161616" d="M10.013,22.686c0,0.539,0.438,0.986,0.979,0.986h0.303v-1.973h-0.303
		C10.45,21.699,10.013,22.145,10.013,22.686z"/>
	<path fill="#161616" d="M1.979,1.973h14.685v1.753h1.973V1.415C18.636,0.633,18.002,0,17.221,0H1.238
		c-0.68,0-1.232,0.552-1.232,1.232v20.987c0,0.681,0.552,1.232,1.232,1.232h3.701v-1.973h-2.96V1.973z"/>
	<path fill="#161616" d="M3.657,5.48c0,0.539,0.438,0.986,0.978,0.986h0.304V4.494H4.635C4.096,4.494,3.657,4.939,3.657,5.48z"/>
	<path fill="#161616" d="M3.657,9.59c0,0.539,0.438,0.932,0.978,0.932h0.304V8.658H4.635C4.096,8.658,3.657,9.049,3.657,9.59z"/>
	<path fill="#161616" d="M3.657,13.699c0,0.539,0.438,0.986,0.978,0.986h0.304v-1.973H4.635C4.096,12.713,3.657,13.158,3.657,13.699
		z"/>
	<path fill="#161616" d="M3.657,17.754c0,0.539,0.438,0.986,0.978,0.986h0.304v-1.973H4.635C4.096,16.768,3.657,17.213,3.657,17.754
		z"/>
	<path fill="#161616" d="M25.582,11.279c-0.625-0.626-1.473-0.978-2.358-0.978h-8.872c-0.781,0-1.415,0.633-1.415,1.415v18.87
		c0,0.781,0.633,1.415,1.415,1.415h14.377c0.781,0,1.415-0.634,1.415-1.415V17.228c0-0.883-0.35-1.73-0.974-2.354L25.582,11.279z
		 M25.32,13.773v0.006l1.271,1.258l-1.271-0.002V13.773z M28.171,16.992v13.035h-13.26V12.273h8.477l-0.011,3.333
		c-0.001,0.366,0.144,0.717,0.401,0.976c0.258,0.259,0.609,0.405,0.975,0.406L28.171,16.992z"/>
	<path fill="#161616" d="M17.249,16.438h2.711c0.54,0,0.977-0.445,0.977-0.986c0-0.539-0.437-0.984-0.977-0.984h-2.711
		c-0.54,0-0.978,0.445-0.978,0.984C16.271,15.992,16.709,16.438,17.249,16.438z"/>
	<path fill="#161616" d="M25.889,18.191h-8.64c-0.54,0-0.978,0.447-0.978,0.986c0,0.541,0.438,0.986,0.978,0.986h8.64
		c0.54,0,0.978-0.445,0.978-0.986C26.866,18.639,26.429,18.191,25.889,18.191z"/>
	<path fill="#161616" d="M25.889,21.918h-8.64c-0.54,0-0.978,0.447-0.978,0.986s0.438,0.986,0.978,0.986h8.64
		c0.54,0,0.978-0.447,0.978-0.986S26.429,21.918,25.889,21.918z"/>
	<path fill="#161616" d="M25.889,25.645h-8.64c-0.54,0-0.978,0.445-0.978,0.986c0,0.539,0.438,0.984,0.978,0.984h8.64
		c0.54,0,0.978-0.445,0.978-0.984C26.866,26.09,26.429,25.645,25.889,25.645z"/>
</g>
</svg>
