<?xml version="1.0" encoding="iso-8859-1"?>
<!-- Generator: Adobe Illustrator 16.0.0, SVG Export Plug-In . SVG Version: 6.00 Build 0)  -->
<!DOCTYPE svg PUBLIC "-//W3C//DTD SVG 1.1//EN" "http://www.w3.org/Graphics/SVG/1.1/DTD/svg11.dtd">
<svg version="1.1" id="Capa_1" xmlns="http://www.w3.org/2000/svg" xmlns:xlink="http://www.w3.org/1999/xlink" x="0px" y="0px"
	 width="30.725px" height="24.58px" viewBox="0 0 30.725 24.58" style="enable-background:new 0 0 30.725 24.58;"
	 xml:space="preserve">
<path style="fill:#000000;" d="M30.718,23.404l0.006-19.877c0-0.611-0.497-1.107-1.107-1.107H15.598
	c-0.435-0.01-0.773-0.807-0.773-1.111V1.182C14.824,0.531,14.3,0,13.648,0h-7.46C5.537,0,5.008,0.531,5.008,1.182v0.127
	c0,0.309-0.342,1.115-0.783,1.115h0.014C3.632,2.436,3.145,2.926,3.145,3.529l0.004,5.756H0.764c0,0-1.056-0.057-0.685,1.199
	l2.518,12.92c0,0.65,0.453,1.176,1.104,1.176h26.474C30.825,24.58,30.718,23.404,30.718,23.404z M29.358,10.951l-0.011,12.973
	l-2.502-13.908c-0.213-0.766-1.078-0.711-1.078-0.711H4.512V4.891h24.847V10.951z M20.003,17.23
	c0.136-0.098,0.325-0.498,0.495-0.852c0.305-0.639,0.592-1.242,0.985-1.248l0.007,0.002c0.399,0,0.68,0.609,0.984,1.258
	c0.162,0.354,0.349,0.756,0.481,0.854c0.137,0.098,0.576,0.154,0.965,0.207c0.705,0.092,1.372,0.18,1.493,0.559
	s-0.371,0.836-0.895,1.322c-0.287,0.266-0.609,0.568-0.665,0.727c-0.049,0.154,0.031,0.592,0.1,0.975
	c0.133,0.701,0.254,1.365-0.068,1.596c-0.07,0.053-0.157,0.076-0.261,0.078c-0.327,0.008-0.806-0.26-1.272-0.521
	c-0.342-0.189-0.729-0.402-0.894-0.406c-0.173,0.006-0.559,0.215-0.898,0.4c-0.456,0.246-0.924,0.502-1.253,0.508
	c-0.112,0-0.21-0.025-0.284-0.084c-0.323-0.234-0.19-0.896-0.056-1.596c0.077-0.381,0.161-0.816,0.108-0.975
	c-0.049-0.156-0.372-0.463-0.656-0.73c-0.515-0.49-1.002-0.957-0.879-1.334c0.126-0.375,0.795-0.455,1.501-0.541
	C19.43,17.381,19.869,17.324,20.003,17.23z"/>
<g>
</g>
<g>
</g>
<g>
</g>
<g>
</g>
<g>
</g>
<g>
</g>
<g>
</g>
<g>
</g>
<g>
</g>
<g>
</g>
<g>
</g>
<g>
</g>
<g>
</g>
<g>
</g>
<g>
</g>
</svg>
