<?xml version="1.0" encoding="utf-8"?>
<!-- Generator: Adobe Illustrator 17.0.0, SVG Export Plug-In . SVG Version: 6.00 Build 0)  -->
<!DOCTYPE svg PUBLIC "-//W3C//DTD SVG 1.1//EN" "http://www.w3.org/Graphics/SVG/1.1/DTD/svg11.dtd">
<svg version="1.1" id="Layer_1" xmlns="http://www.w3.org/2000/svg" xmlns:xlink="http://www.w3.org/1999/xlink" x="0px" y="0px"
	 viewBox="0 0 49.725 44.095" enable-background="new 0 0 49.725 44.095" xml:space="preserve">
<path fill="#FFFFFF" d="M26.495,6.66c-0.655-1.139-1.727-1.102-2.383,0.036L5.492,39.095c-0.656,1.138-0.117,2.218,1.196,2.218
	h37.194c1.314,0,1.853-1.062,1.198-2.201L26.495,6.66z"/>
<g>
	<path d="M31.5,25.861c-0.305-0.088-0.631-0.093-0.949-0.105c0.087-0.223,2.389-5.931-3.689-8.194
		c-0.003,0.051-0.007,0.103-0.015,0.152c3.905,2.347,2.098,6.107,1.951,6.271c-1.077-0.829-2.421-1.322-3.881-1.322
		c-1.485,0-2.853,0.511-3.938,1.368c-0.267-0.442-0.475-0.944-0.608-1.499c-0.108-0.97-0.04-1.842,0.383-2.744
		c0.419-0.822,1.093-1.516,1.896-1.971c-0.009-0.045-0.017-0.09-0.022-0.136c-0.891,0.36-1.702,0.962-2.428,1.74
		c-0.316,0.442-2.207,2.716-1.011,6.189c-0.322,0.011-0.643,0.045-0.959,0.105c-1.258,0.267-3.257,1.349-4.198,3.208
		c-0.315,0.532-0.44,1.074-0.588,1.599c-0.152,1.051-0.119,2.061,0.154,2.983c0.04-0.024,0.08-0.047,0.121-0.069
		c-0.144-0.911-0.023-1.873,0.359-2.711c0.441-0.895,1.08-1.49,1.906-2.01c1.391-0.652,2.56-0.471,2.608-0.463
		c-0.031,0.258-0.049,0.52-0.049,0.787c0,2.549,1.505,4.752,3.672,5.772c-0.011,0.03-0.022,0.061-0.032,0.09
		c-0.04,0.073-2.047,3.341-5.927,1.88c-0.034,0.037-0.071,0.072-0.108,0.106c0.476,0.366,4.527,3.081,8.258-1.498
		c0.169,0.015,0.34,0.024,0.513,0.024c0.104,0,0.208-0.004,0.311-0.008c0.788,1.095,3.807,4.485,8.355,1.629
		c-0.038-0.035-0.075-0.071-0.108-0.108c-4.06,1.515-5.97-1.995-5.992-2.055c2.415-1.097,3.808-3.231,3.808-5.833
		c0-0.224-0.012-0.443-0.034-0.662c0.009-0.001,0.016-0.004,0.025-0.006c0.789-0.054,1.635,0.099,2.463,0.488
		c0.826,0.521,1.465,1.117,1.906,2.011c0.381,0.838,0.503,1.798,0.358,2.711c0.042,0.021,0.081,0.042,0.121,0.068
		C36.464,32.608,37.294,27.524,31.5,25.861z M21.679,30.132c-0.003-0.003-0.007-0.009-0.011-0.012l0.009,0.009L21.679,30.132z
		 M23.266,29.039c0-0.602,0.322-1.125,0.803-1.416c0.248-0.149,0.537-0.236,0.848-0.236c0.323,0,0.625,0.096,0.879,0.254
		c0.464,0.294,0.772,0.808,0.772,1.397c0,0.682-0.416,1.271-1.008,1.522c-0.198,0.083-0.415,0.129-0.643,0.129
		C24.004,30.691,23.266,29.951,23.266,29.039z M24.916,24.398c0.986,0,1.9,0.312,2.653,0.838c-0.837,0.593-3.407,1.525-5.384,0.056
		C22.953,24.731,23.897,24.398,24.916,24.398z M20.277,29.039c0-0.067,0.003-0.133,0.004-0.2c0.077,0.044,2.154,1.164,2.313,4.213
		C21.211,32.248,20.277,30.751,20.277,29.039z M27.134,33.113c0.001-0.078,0.172-2.885,2.42-4.184
		c0.001,0.036,0.003,0.073,0.003,0.11C29.557,30.794,28.577,32.325,27.134,33.113z"/>
	<path fill="#EA2A2A" d="M49.344,39.764L27.485,1.749C26.835,0.622,25.987,0,25.1,0c-0.904,0-1.769,0.637-2.436,1.794L0.804,39.742
		c-0.666,1.154-0.776,2.287-0.302,3.107c0.464,0.803,1.427,1.246,2.714,1.246h43.717c1.29,0,2.255-0.441,2.717-1.24
		C50.12,42.04,50.008,40.915,49.344,39.764z M43.665,40.751H6.471c-1.314,0-1.852-0.931-1.196-2.07l18.62-32.324
		c0.656-1.138,1.728-1.138,2.383,0.001L44.864,38.68C45.518,39.819,44.979,40.751,43.665,40.751z"/>
</g>
</svg>
