<?xml version="1.0" encoding="utf-8"?>
<!-- Generator: Adobe Illustrator 17.0.0, SVG Export Plug-In . SVG Version: 6.00 Build 0)  -->
<!DOCTYPE svg PUBLIC "-//W3C//DTD SVG 1.1//EN" "http://www.w3.org/Graphics/SVG/1.1/DTD/svg11.dtd">
<svg version="1.1" id="Layer_1" xmlns="http://www.w3.org/2000/svg" xmlns:xlink="http://www.w3.org/1999/xlink" x="0px" y="0px"
	 viewBox="0 0 49.725 44.095" enable-background="new 0 0 49.725 44.095" xml:space="preserve">
<g>
	<path fill="#FFFFFF" d="M26.495,6.66c-0.655-1.139-1.727-1.102-2.383,0.036L5.492,39.095c-0.656,1.138-0.117,2.218,1.196,2.218
		h37.194c1.314,0,1.853-1.062,1.198-2.201L26.495,6.66z"/>
	<g>
		<path d="M20.726,38.801c-1.453-3.024-0.679-4.756,0.438-6.389c1.223-1.788,1.538-3.557,1.538-3.557s0.961,1.25,0.577,3.205
			c1.699-1.891,2.019-4.903,1.763-6.057c3.839,2.683,5.48,8.493,3.269,12.799c11.762-6.655,2.926-16.612,1.387-17.734
			c0.513,1.122,0.61,3.02-0.426,3.942c-1.754-6.649-6.089-8.012-6.089-8.012c0.513,3.429-1.859,7.179-4.146,9.981
			c-0.08-1.367-0.166-2.311-0.885-3.619c-0.161,2.484-2.06,4.509-2.574,6.998C14.882,33.726,16.1,36.194,20.726,38.801z"/>
		<path fill="#EA2A2A" d="M49.133,39.764L27.274,1.749C26.623,0.622,25.776,0,24.889,0c-0.904,0-1.769,0.637-2.436,1.794
			L0.593,39.742c-0.666,1.154-0.776,2.287-0.302,3.107c0.464,0.803,1.427,1.246,2.714,1.246h43.717c1.29,0,2.255-0.441,2.717-1.24
			C49.908,42.04,49.797,40.915,49.133,39.764z M43.454,40.751H6.26c-1.314,0-1.852-0.931-1.196-2.07l18.62-32.324
			c0.656-1.138,1.728-1.138,2.383,0.001L44.652,38.68C45.307,39.819,44.768,40.751,43.454,40.751z"/>
	</g>
</g>
</svg>
