<?xml version="1.0" encoding="utf-8"?>
<!-- Generator: Adobe Illustrator 17.0.0, SVG Export Plug-In . SVG Version: 6.00 Build 0)  -->
<!DOCTYPE svg PUBLIC "-//W3C//DTD SVG 1.1//EN" "http://www.w3.org/Graphics/SVG/1.1/DTD/svg11.dtd">
<svg version="1.1" id="Layer_1" xmlns="http://www.w3.org/2000/svg" xmlns:xlink="http://www.w3.org/1999/xlink" x="0px" y="0px"
	 viewBox="0 0 61 88.538" enable-background="new 0 0 61 88.538" xml:space="preserve">
<g>
	<g>
		<path fill="#BCCD30" stroke="#000000" stroke-miterlimit="10" d="M41.806,5.195c0.435-0.351,0.885-0.66,1.375-0.853
			c0.461-0.248,0.946-0.43,1.459-0.542c0.986-0.309,2.009-0.254,2.906-0.133c0.9,0.159,1.693,0.462,2.353,0.825
			c1.33,0.715,2.183,1.591,2.725,2.22c0.536,0.64,0.761,1.061,0.761,1.061s-0.407-0.251-1.122-0.611
			c-0.71-0.357-1.745-0.824-2.967-1.127c-1.231-0.306-2.636-0.332-3.907,0.193c-0.643,0.199-1.272,0.678-1.785,1.096
			c-0.519,0.32-1.222,1.265-1.796,1.819c-1.381,1.52-3.414,2.702-5.452,2.846c-1.004,0.127-1.978,0-2.823-0.225
			c-0.862-0.19-1.603-0.536-2.252-0.885c-1.306-0.698-2.196-1.514-2.776-2.108c-0.574-0.603-0.833-0.998-0.833-0.998
			s1.695,0.922,4.212,1.568c0.623,0.147,1.306,0.266,1.998,0.303c0.692,0.055,1.407-0.014,2.098-0.161
			c1.378-0.312,2.675-1.096,3.716-2.304C40.454,6.481,40.832,5.901,41.806,5.195z M14.856,6.273
			c0.623,0.147,1.306,0.266,1.998,0.303c0.701,0.055,1.416-0.014,2.102-0.164c1.372-0.311,2.675-1.095,3.717-2.304
			c0.752-0.698,1.13-1.278,2.11-1.984c0.435-0.351,0.885-0.66,1.375-0.853c0.461-0.248,0.946-0.43,1.453-0.542
			c0.992-0.309,2.015-0.254,2.912-0.133c0.9,0.159,1.687,0.462,2.347,0.825c1.335,0.715,2.183,1.591,2.725,2.22
			c0.542,0.64,0.761,1.061,0.761,1.061s-0.401-0.251-1.116-0.611c-0.715-0.357-1.744-0.824-2.972-1.127
			c-1.228-0.306-2.633-0.332-3.904,0.193c-0.643,0.199-1.278,0.678-1.785,1.096c-0.525,0.32-1.222,1.265-1.796,1.819
			c-1.381,1.52-3.414,2.702-5.458,2.846c-1.004,0.127-1.972,0-2.817-0.225c-0.862-0.19-1.608-0.536-2.257-0.885
			c-1.301-0.698-2.194-1.514-2.768-2.105C10.909,5.1,10.65,4.705,10.65,4.705S12.345,5.627,14.856,6.273z M60.5,88.038h-8v-10h-18
			v10h-34V52.943l13-6.925v5.853l10.539-5.51l0.017,5.184L34.5,46.018v5.853l10.369-5.152l0.125,6.319h3.935l1.502-40h6.328
			l1.257,40H60.5V88.038z"/>
		<rect x="5.5" y="58.038" fill="#FFFFFF" stroke="#000000" stroke-miterlimit="10" width="9" height="6"/>
		<rect x="31.5" y="58.038" fill="#FFFFFF" stroke="#000000" stroke-miterlimit="10" width="9" height="6"/>
		<rect x="45.5" y="58.038" fill="#FFFFFF" stroke="#000000" stroke-miterlimit="10" width="9" height="6"/>
		<rect x="18.5" y="58.038" fill="#FFFFFF" stroke="#000000" stroke-miterlimit="10" width="9" height="6"/>
		<path fill="#BCCD30" stroke="#000000" stroke-miterlimit="10" d="M56.759,13.038h-6.328l-1.502,40h-3.935L45,46.719L34.762,52.05
			l0.006-5.942L24.334,51.59l0.006-5.206l-10.238,5.499l-0.257-5.859L0.5,52.943v35.095h34v-10h18v10h8v-35h-2.484L56.759,13.038z
			 M14.5,64.038h-9v-6h9V64.038z M27.5,64.038h-9v-6h9V64.038z M40.5,64.038h-9v-6h9V64.038z M54.5,64.038h-9v-6h9V64.038z"/>
		<path fill="#BCCD30" stroke="#000000" stroke-miterlimit="10" d="M33.882,9.644c-0.692-0.037-1.375-0.156-1.998-0.303
			c-2.517-0.646-4.212-1.568-4.212-1.568s0.259,0.395,0.833,0.998c0.58,0.594,1.47,1.41,2.776,2.108
			c0.649,0.349,1.39,0.695,2.252,0.885c0.845,0.225,1.819,0.352,2.823,0.225c2.038-0.144,4.071-1.326,5.452-2.846
			c0.574-0.554,1.277-1.499,1.796-1.819c0.513-0.418,1.142-0.897,1.785-1.096c1.271-0.525,2.676-0.499,3.907-0.193
			c1.222,0.303,2.257,0.77,2.967,1.127c0.715,0.36,1.122,0.611,1.122,0.611s-0.225-0.421-0.761-1.061
			c-0.542-0.629-1.395-1.505-2.725-2.22c-0.66-0.363-1.453-0.666-2.353-0.825c-0.897-0.121-1.92-0.176-2.906,0.133
			c-0.513,0.112-0.998,0.294-1.459,0.542c-0.49,0.193-0.94,0.502-1.375,0.853c-0.974,0.706-1.352,1.286-2.11,1.984
			c-1.041,1.208-2.338,1.992-3.716,2.304C35.289,9.63,34.574,9.699,33.882,9.644z"/>
		<path fill="#BCCD30" stroke="#000000" stroke-miterlimit="10" d="M14.251,7.808c0.649,0.349,1.395,0.695,2.257,0.885
			c0.845,0.225,1.813,0.352,2.817,0.225c2.044-0.144,4.077-1.326,5.458-2.846c0.574-0.554,1.271-1.499,1.796-1.819
			c0.507-0.418,1.142-0.897,1.785-1.096c1.271-0.525,2.676-0.499,3.904-0.193c1.228,0.303,2.257,0.77,2.972,1.127
			c0.715,0.36,1.116,0.611,1.116,0.611s-0.219-0.421-0.761-1.061c-0.542-0.629-1.39-1.505-2.725-2.22
			c-0.66-0.363-1.447-0.666-2.347-0.825c-0.897-0.121-1.92-0.176-2.912,0.133c-0.507,0.112-0.992,0.294-1.453,0.542
			c-0.49,0.193-0.94,0.502-1.375,0.853c-0.98,0.706-1.358,1.286-2.11,1.984c-1.042,1.209-2.345,1.993-3.717,2.304
			c-0.686,0.15-1.401,0.219-2.102,0.164c-0.692-0.037-1.375-0.156-1.998-0.303c-2.511-0.646-4.206-1.568-4.206-1.568
			s0.259,0.395,0.833,0.998C12.057,6.294,12.95,7.11,14.251,7.808z"/>
	</g>
	<rect x="34.5" y="78.038" fill="#FFFFFF" stroke="#000000" stroke-miterlimit="10" width="18" height="10"/>
</g>
</svg>
