<?xml version="1.0" encoding="utf-8"?>
<!-- Generator: Adobe Illustrator 17.0.0, SVG Export Plug-In . SVG Version: 6.00 Build 0)  -->
<!DOCTYPE svg PUBLIC "-//W3C//DTD SVG 1.1//EN" "http://www.w3.org/Graphics/SVG/1.1/DTD/svg11.dtd">
<svg version="1.1" id="Layer_1" xmlns="http://www.w3.org/2000/svg" xmlns:xlink="http://www.w3.org/1999/xlink" x="0px" y="0px"
	 viewBox="0 0 60.749 87.537" enable-background="new 0 0 60.749 87.537" xml:space="preserve">
<g>
	<g>
		<path fill="#BCCD30" stroke="#000000" stroke-miterlimit="10" d="M57.49,52.322l-1.257-39.311h-6.328l-1.502,39.311h-3.935
			l0.006-5.962l-10.238,5.51l0.006-5.853l-10.434,5.527l0.006-5.184l-10.238,5.51l0.006-5.853L0.5,52.942v34.095h34.225v-9.419
			h17.783v9.419h7.741V52.322H57.49z M14.422,63.494h-9.01v-5.887h9.01V63.494z M27.639,63.494h-9.01v-5.887h9.01V63.494z
			 M40.849,63.494h-9.01v-5.887h9.01V63.494z M54.065,63.494h-9.01v-5.887h9.01V63.494z"/>
		<path fill="#BCCD30" stroke="#000000" stroke-miterlimit="10" d="M33.356,9.643c-0.692-0.037-1.375-0.156-1.998-0.303
			c-2.517-0.646-4.212-1.568-4.212-1.568s0.259,0.395,0.833,0.998c0.58,0.594,1.47,1.41,2.776,2.108
			c0.649,0.349,1.39,0.695,2.252,0.885c0.845,0.225,1.819,0.352,2.823,0.225c2.038-0.144,4.071-1.326,5.452-2.846
			c0.574-0.554,1.277-1.499,1.796-1.819c0.513-0.418,1.142-0.897,1.785-1.096c1.271-0.525,2.676-0.499,3.907-0.193
			c1.222,0.303,2.257,0.77,2.967,1.127c0.715,0.36,1.122,0.611,1.122,0.611s-0.225-0.421-0.761-1.061
			c-0.542-0.629-1.395-1.505-2.725-2.22c-0.66-0.363-1.453-0.666-2.353-0.825c-0.897-0.121-1.92-0.176-2.906,0.133
			c-0.513,0.112-0.998,0.294-1.459,0.542c-0.49,0.193-0.94,0.502-1.375,0.853c-0.974,0.706-1.352,1.286-2.11,1.984
			c-1.041,1.208-2.338,1.992-3.716,2.304C34.763,9.629,34.048,9.698,33.356,9.643z"/>
		<path fill="#BCCD30" stroke="#000000" stroke-miterlimit="10" d="M13.725,7.807c0.649,0.349,1.395,0.695,2.257,0.885
			c0.845,0.225,1.813,0.352,2.817,0.225c2.044-0.144,4.077-1.326,5.458-2.846c0.574-0.554,1.271-1.499,1.796-1.819
			c0.507-0.418,1.142-0.897,1.785-1.096c1.271-0.525,2.676-0.499,3.904-0.193c1.228,0.303,2.257,0.77,2.972,1.127
			c0.715,0.36,1.116,0.611,1.116,0.611s-0.219-0.421-0.761-1.061c-0.542-0.629-1.39-1.505-2.725-2.22
			c-0.66-0.363-1.447-0.666-2.347-0.825c-0.897-0.121-1.92-0.176-2.912,0.133c-0.507,0.112-0.992,0.294-1.453,0.542
			c-0.49,0.193-0.94,0.502-1.375,0.853c-0.98,0.706-1.358,1.286-2.11,1.984C21.105,5.316,19.802,6.1,18.43,6.411
			c-0.686,0.15-1.401,0.219-2.102,0.164c-0.692-0.037-1.375-0.156-1.998-0.303c-2.511-0.646-4.206-1.568-4.206-1.568
			s0.259,0.395,0.833,0.998C11.531,6.293,12.424,7.109,13.725,7.807z"/>
	</g>
</g>
</svg>
