<?xml version="1.0" encoding="utf-8"?>
<!-- Generator: Adobe Illustrator 17.0.0, SVG Export Plug-In . SVG Version: 6.00 Build 0)  -->
<!DOCTYPE svg PUBLIC "-//W3C//DTD SVG 1.1//EN" "http://www.w3.org/Graphics/SVG/1.1/DTD/svg11.dtd">
<svg version="1.1" id="Layer_1" xmlns="http://www.w3.org/2000/svg" xmlns:xlink="http://www.w3.org/1999/xlink" x="0px" y="0px"
	 viewBox="0 0 49.725 44.095" enable-background="new 0 0 49.725 44.095" xml:space="preserve">
<g>
	<path fill="#FFFFFF" d="M25.643,6.66c-0.655-1.139-1.727-1.102-2.383,0.036L4.64,39.095c-0.656,1.138-0.117,2.218,1.196,2.218
		H43.03c1.314,0,1.853-1.062,1.198-2.201L25.643,6.66z"/>
	<g>
		<polygon points="22.159,25.779 26.925,12.353 23.036,12.034 17.804,30.112 24.89,26.417 23.783,33.598 21.489,33.598 
			24.115,39.554 28.313,33.598 25.499,33.598 29.136,21.604 		"/>
		<path fill="#EA2A2A" d="M49.133,39.764L27.274,1.749C26.623,0.622,25.776,0,24.889,0c-0.904,0-1.769,0.637-2.436,1.794
			L0.593,39.742c-0.666,1.154-0.776,2.287-0.302,3.107c0.464,0.803,1.427,1.246,2.714,1.246h43.717c1.29,0,2.255-0.441,2.717-1.24
			C49.908,42.04,49.797,40.915,49.133,39.764z M43.454,40.751H6.26c-1.314,0-1.852-0.931-1.196-2.07l18.62-32.324
			c0.656-1.138,1.728-1.138,2.383,0.001L44.652,38.68C45.307,39.819,44.768,40.751,43.454,40.751z"/>
	</g>
</g>
</svg>
