<?xml version="1.0" encoding="utf-8"?>
<!-- Generator: Adobe Illustrator 17.0.0, SVG Export Plug-In . SVG Version: 6.00 Build 0)  -->
<!DOCTYPE svg PUBLIC "-//W3C//DTD SVG 1.1//EN" "http://www.w3.org/Graphics/SVG/1.1/DTD/svg11.dtd">
<svg version="1.1" id="Layer_1" xmlns="http://www.w3.org/2000/svg" xmlns:xlink="http://www.w3.org/1999/xlink" x="0px" y="0px"
	 viewBox="0 0 34.337 48.92" enable-background="new 0 0 34.337 48.92" xml:space="preserve">
<g>
	<path fill="#EA2A2A" d="M17.168,0C7.687,0,0,7.687,0,17.168c0,0.726,0.058,1.433,0.147,2.135
		c1.467,13.408,15.907,28.864,15.907,28.864c0.257,0.288,0.505,0.469,0.744,0.597l0.012,0.006l0.481,0.15l0.481-0.15l0.012-0.006
		c0.239-0.129,0.487-0.312,0.744-0.597c0,0,14.235-15.481,15.665-28.895c0.086-0.692,0.144-1.393,0.144-2.107
		C34.334,7.687,26.65,0,17.168,0z M17.168,28.212c-6.088,0-11.043-4.955-11.043-11.043S11.08,6.125,17.168,6.125
		s11.04,4.955,11.04,11.043S23.257,28.212,17.168,28.212z"/>
	<g>
		<path d="M12.084,10.896h1.767v5.335h6.636v-5.335h1.767v12.911h-1.767v-6.038h-6.636v6.038h-1.767V10.896z"/>
	</g>
</g>
</svg>
