<?xml version="1.0" encoding="utf-8"?>
<!-- Generator: Adobe Illustrator 17.0.0, SVG Export Plug-In . SVG Version: 6.00 Build 0)  -->
<!DOCTYPE svg PUBLIC "-//W3C//DTD SVG 1.1//EN" "http://www.w3.org/Graphics/SVG/1.1/DTD/svg11.dtd">
<svg version="1.1" id="Layer_1" xmlns="http://www.w3.org/2000/svg" xmlns:xlink="http://www.w3.org/1999/xlink" x="0px" y="0px"
	 viewBox="0 0 35.337 49.944" enable-background="new 0 0 35.337 49.944" xml:space="preserve">
<g>
	<path fill="#FFFFFF" stroke="#000000" stroke-miterlimit="10" d="M17.668,0.5C8.187,0.5,0.5,8.187,0.5,17.668
		c0,0.726,0.058,1.433,0.147,2.135c1.467,13.408,15.907,28.864,15.907,28.864c0.257,0.288,0.505,0.469,0.744,0.597l0.012,0.006
		l0.481,0.15l0.481-0.15l0.012-0.006c0.239-0.129,0.487-0.312,0.744-0.597c0,0,14.235-15.481,15.665-28.895
		c0.086-0.692,0.144-1.393,0.144-2.107C34.834,8.187,27.15,0.5,17.668,0.5z M17.668,28.712c-6.088,0-11.043-4.955-11.043-11.043
		S11.58,6.625,17.668,6.625s11.04,4.955,11.04,11.043S23.757,28.712,17.668,28.712z"/>
	<g>
		<path d="M14.429,11.396v7.98c0,0.938,0.177,1.717,0.532,2.338c0.525,0.938,1.411,1.406,2.658,1.406
			c1.494,0,2.51-0.507,3.047-1.521c0.29-0.551,0.434-1.292,0.434-2.224v-7.98h1.767v7.251c0,1.588-0.215,2.81-0.644,3.665
			c-0.788,1.559-2.276,2.338-4.463,2.338s-3.672-0.779-4.454-2.338c-0.429-0.855-0.644-2.077-0.644-3.665v-7.251H14.429z"/>
	</g>
</g>
</svg>
