<?xml version="1.0" encoding="utf-8"?>
<!-- Generator: Adobe Illustrator 17.0.0, SVG Export Plug-In . SVG Version: 6.00 Build 0)  -->
<!DOCTYPE svg PUBLIC "-//W3C//DTD SVG 1.1//EN" "http://www.w3.org/Graphics/SVG/1.1/DTD/svg11.dtd">
<svg version="1.1" id="Layer_1" xmlns="http://www.w3.org/2000/svg" xmlns:xlink="http://www.w3.org/1999/xlink" x="0px" y="0px"
	 viewBox="0 0 70 69" enable-background="new 0 0 70 69" xml:space="preserve">
<g>
	<g>
		<rect x="9.5" y="42.5" fill="#FFFFFF" stroke="#000000" stroke-miterlimit="10" width="9" height="9"/>
		<rect x="22.5" y="42.5" fill="#FFFFFF" stroke="#000000" stroke-miterlimit="10" width="8" height="9"/>
		<rect x="9.5" y="29.5" fill="#FFFFFF" stroke="#000000" stroke-miterlimit="10" width="9" height="9"/>
		<rect x="9.5" y="17.5" fill="#FFFFFF" stroke="#000000" stroke-miterlimit="10" width="9" height="8"/>
		<rect x="9.5" y="4.5" fill="#FFFFFF" stroke="#000000" stroke-miterlimit="10" width="9" height="8"/>
		<rect x="22.5" y="29.5" fill="#FFFFFF" stroke="#000000" stroke-miterlimit="10" width="8" height="9"/>
		<polygon fill="#FFFFFF" stroke="#000000" stroke-miterlimit="10" points="13.5,64.5 27.103,64.5 26.5,63.508 26.5,55.5 13.5,55.5 
					"/>
		<rect x="52.5" y="42.5" fill="#FFFFFF" stroke="#000000" stroke-miterlimit="10" width="8" height="9"/>
		<rect x="43.5" y="55.5" fill="#FFFFFF" stroke="#000000" stroke-miterlimit="10" width="13" height="9"/>
		<rect x="39.5" y="42.5" fill="#FFFFFF" stroke="#000000" stroke-miterlimit="10" width="8" height="9"/>
		<rect x="52.5" y="29.5" fill="#FFFFFF" stroke="#000000" stroke-miterlimit="10" width="8" height="9"/>
		<rect x="22.5" y="4.5" fill="#FFFFFF" stroke="#000000" stroke-miterlimit="10" width="8" height="8"/>
		<rect x="39.5" y="29.5" fill="#FFFFFF" stroke="#000000" stroke-miterlimit="10" width="8" height="9"/>
		<rect x="22.5" y="17.5" fill="#FFFFFF" stroke="#000000" stroke-miterlimit="10" width="8" height="8"/>
	</g>
	<path fill="#FFCF01" stroke="#000000" stroke-miterlimit="10" d="M65.5,25.5h-30v-25h-30v64h-5v4h69v-4h-4V25.5z M9.5,4.5h9v8h-9
		V4.5z M9.5,17.5h9v8h-9V17.5z M9.5,29.5h9v9h-9V29.5z M9.5,42.5h9v9h-9V42.5z M26.5,63.508l0.603,0.992H13.5v-9h13V63.508z
		 M30.5,51.5h-8v-9h8V51.5z M30.5,38.5h-8v-9h8V38.5z M30.5,25.5h-8v-8h8V25.5z M30.5,12.5h-8v-8h8V12.5z M39.5,29.5h8v9h-8V29.5z
		 M39.5,42.5h8v9h-8V42.5z M56.5,64.5h-13v-9h13V64.5z M60.5,51.5h-8v-9h8V51.5z M60.5,38.5h-8v-9h8V38.5z"/>
</g>
</svg>
