<?xml version="1.0" encoding="utf-8"?>
<!-- Generator: Adobe Illustrator 17.0.0, SVG Export Plug-In . SVG Version: 6.00 Build 0)  -->
<!DOCTYPE svg PUBLIC "-//W3C//DTD SVG 1.1//EN" "http://www.w3.org/Graphics/SVG/1.1/DTD/svg11.dtd">
<svg version="1.1" id="Layer_1" xmlns="http://www.w3.org/2000/svg" xmlns:xlink="http://www.w3.org/1999/xlink" x="0px" y="0px"
	  viewBox="0 0 49.725 44.095" enable-background="new 0 0 49.725 44.095" xml:space="preserve">
<g>
	<path fill="#FFFFFF" d="M26.005,6.66c-0.655-1.139-1.727-1.102-2.383,0.036L5.002,39.095c-0.656,1.138-0.117,2.218,1.196,2.218
		h37.194c1.314,0,1.853-1.062,1.198-2.201L26.005,6.66z"/>
	<g>
		<g>
			<path d="M34.927,26.796c0,2.086-1.69,3.774-3.775,3.774c-0.15,0-1.575,0-3.463,0c-1.146,0-2.459,0-3.771,0
				c-3.311,0-6.58,0-6.917,0c-1.216,0-2.201-0.462-2.201-1.679c0-1.216,0.986-2.201,2.201-2.201c0.221,0,0.43,0.044,0.634,0.105
				c0-0.018-0.005-0.034-0.005-0.052c0-1.419,1.15-2.568,2.569-2.568c0.059,0,0.117,0.014,0.176,0.018
				c-0.003-0.06-0.019-0.116-0.019-0.176c0-2.634,2.135-4.769,4.77-4.769c2.378,0,4.337,1.749,4.695,4.028
				c0.414-0.158,0.86-0.255,1.331-0.255C33.237,23.022,34.927,24.712,34.927,26.796z M27.278,31.475h-3.767
				c-1.105,1.111-2.897,2.911-2.917,2.911h3.018l-3.017,5.284l6.791-6.039h-2.264L27.278,31.475z"/>
		</g>
		<path fill="#EA2A2A" d="M49.133,39.764L27.274,1.749C26.623,0.622,25.776,0,24.889,0c-0.904,0-1.769,0.637-2.436,1.794
			L0.593,39.742c-0.666,1.154-0.776,2.287-0.302,3.107c0.464,0.803,1.427,1.246,2.714,1.246h43.717c1.29,0,2.255-0.441,2.717-1.24
			C49.908,42.04,49.797,40.915,49.133,39.764z M43.454,40.751H6.26c-1.314,0-1.852-0.931-1.196-2.07l18.62-32.324
			c0.656-1.138,1.728-1.138,2.383,0.001L44.652,38.68C45.307,39.819,44.768,40.751,43.454,40.751z"/>
	</g>
</g>
</svg>
